<svg xmlns="http://www.w3.org/2000/svg" viewBox="0 0 64 64" role="img">
  <title>足球图标</title>
  <rect width="64" height="64" rx="14" fill="#0d704c"/>
  <circle cx="32" cy="32" r="23" fill="#f7f8f4"/>
  <defs>
    <clipPath id="ball-clip">
      <circle cx="32" cy="32" r="23"/>
    </clipPath>
  </defs>
  <g clip-path="url(#ball-clip)">
    <path class="soccer-seam" d="M32 20 21 27M32 20 43 27M21 27 24 41M43 27 40 41M24 41 32 51M40 41 32 51M21 27 10 22M43 27 54 22M24 41 15 53M40 41 49 53" fill="none" stroke="#17221f" stroke-width="2.4" stroke-linecap="round" stroke-linejoin="round"/>
    <polygon class="soccer-panel" points="32,18 43,26 39,40 25,40 21,26" fill="#17221f"/>
    <polygon class="soccer-panel" points="19,6 45,6 43,17 32,20 21,17" fill="#17221f"/>
    <polygon class="soccer-panel" points="5,24 13,15 21,26 24,38 12,40" fill="#17221f"/>
    <polygon class="soccer-panel" points="59,24 51,15 43,26 40,38 52,40" fill="#17221f"/>
    <polygon class="soccer-panel" points="14,52 24,41 32,51 28,64 17,62" fill="#17221f"/>
    <polygon class="soccer-panel" points="50,52 40,41 32,51 36,64 47,62" fill="#17221f"/>
  </g>
  <circle cx="32" cy="32" r="23" fill="none" stroke="#f7f8f4" stroke-width="2"/>
</svg>
